<?xml version="1.0" encoding="UTF-8" standalone="no"?>
<svg
   xmlns:dc="http://purl.org/dc/elements/1.1/"
   xmlns:cc="http://creativecommons.org/ns#"
   xmlns:rdf="http://www.w3.org/1999/02/22-rdf-syntax-ns#"
   xmlns:svg="http://www.w3.org/2000/svg"
   xmlns="http://www.w3.org/2000/svg"
   xmlns:xlink="http://www.w3.org/1999/xlink"
   xmlns:sodipodi="http://sodipodi.sourceforge.net/DTD/sodipodi-0.dtd"
   xmlns:inkscape="http://www.inkscape.org/namespaces/inkscape"
   version="1.1"
   viewBox="0 0 784 411"
   id="svg6052"
   sodipodi:docname="helppage2.svg"
   inkscape:version="0.92.5 (2060ec1f9f, 2020-04-08)">
  <metadata
     id="metadata6058">
    <rdf:RDF>
      <cc:Work
         rdf:about="">
        <dc:format>image/svg+xml</dc:format>
        <dc:type
           rdf:resource="http://purl.org/dc/dcmitype/StillImage" />
        <dc:title></dc:title>
      </cc:Work>
    </rdf:RDF>
  </metadata>
  <defs
     id="defs6056" />
  <sodipodi:namedview
     pagecolor="#ffffff"
     bordercolor="#666666"
     borderopacity="1"
     objecttolerance="10"
     gridtolerance="10"
     guidetolerance="10"
     inkscape:pageopacity="0"
     inkscape:pageshadow="2"
     inkscape:window-width="1920"
     inkscape:window-height="1017"
     id="namedview6054"
     showgrid="false"
     inkscape:zoom="1.8035714"
     inkscape:cx="392"
     inkscape:cy="205.5"
     inkscape:window-x="-8"
     inkscape:window-y="32"
     inkscape:window-maximized="1"
     inkscape:current-layer="svg6052" />
  <image
     sodipodi:absref="D:\Projects\GitHub\KanjiStrokes\KanjiStrokes\Resources\helppage.png"
     xlink:href="helppage.png"
     id="image6026"
     preserveAspectRatio="none"
     image-rendering="optimizeSpeed"
     height="411"
     width="784" />
  <path
     d="m536.96 287.51c1.24 7.471-5.059 15.454-12.248 17.293-19.737 5.05-30.898-28.609-36.752-41.293"
     fill="none"
     stroke="#000"
     stroke-linecap="round"
     stroke-linejoin="round"
     stroke-miterlimit="10"
     stroke-width="1.5"
     id="path6028" />
  <path
     d="m495.45 264.46c-4.28-0.965-6.285-4.796-10.118-6.504 0.012 3.201-0.255 9.697-2.112 12.511"
     fill="none"
     stroke="#000"
     stroke-linecap="round"
     stroke-linejoin="round"
     stroke-miterlimit="10"
     stroke-width="1.5"
     id="path6030" />
  <path
     d="m42.938 356.46c4.8014-3.3855 14.839 5.2207 19.456 6.6875 17.39 5.5215 24.812-10.31 30.931-23.828"
     fill="none"
     stroke="#000"
     stroke-linecap="round"
     stroke-miterlimit="10"
     stroke-width="1.5"
     id="path6032" />
  <path
     d="m48.961 361.27c-3.4515-2.7095-7.6875-1.8464-11.433-3.7401 2.4914-2.0119 7.3595-6.3196 8.3695-9.5374"
     fill="none"
     stroke="#000"
     stroke-linecap="round"
     stroke-linejoin="round"
     stroke-miterlimit="10"
     stroke-width="1.5"
     id="path6034" />
  <path
     d="m666.69 42.528c9.6405 11.215 30.776 12.983 40.878 1.1281 2.65-3.1105 7.4845-9.4127 4.7559-13.638-5.9867-9.2684-21.588 10.887-6.1847 15.232 6.3708 1.7965 13.851-1.1149 19.741-3.4234 6.9933-2.7385 13.633-6.2933 20.626-9.0309"
     fill="none"
     stroke="#000"
     stroke-linecap="round"
     stroke-linejoin="round"
     stroke-miterlimit="10"
     stroke-width="1.5"
     id="path6036" />
  <path
     d="m746.39 40.453c0.3743-4.3715 3.8954-6.88 5.0657-10.911-3.1704 0.44907-9.6424 1.0696-12.682-0.38742"
     fill="none"
     stroke="#000"
     stroke-linecap="round"
     stroke-linejoin="round"
     stroke-miterlimit="10"
     stroke-width="1.5"
     id="path6038" />
  <path
     d="m23.62 74.488c0.86738 5.679 2.2448 14.965 8.5444 17.352 5.5891 2.1162 12.342-2.137 16.927-4.8637 6.6854-3.9743 26.649-18.23 24.393-0.31069-0.74464 5.9125-3.1381 11.297-6.3302 16.28"
     fill="none"
     stroke="#000"
     stroke-linecap="round"
     stroke-linejoin="round"
     stroke-miterlimit="10"
     stroke-width="1.5"
     id="path6040" />
  <path
     d="m31.025 76.473c-4.1279-1.4874-5.6442-5.5369-9.2368-7.7066-0.38332 3.1805-1.4521 9.5936-3.6437 12.155"
     fill="none"
     stroke="#000"
     stroke-linecap="round"
     stroke-linejoin="round"
     stroke-miterlimit="10"
     stroke-width="1.5"
     id="path6042" />
  <path
     d="m129.86 391.42c-9.8819 12.467-17.422 15.087-31.156 6.64-19.451-11.963-33.64-14.737-56.447-10.276"
     fill="none"
     stroke="#000"
     stroke-linecap="round"
     stroke-linejoin="round"
     stroke-miterlimit="10"
     stroke-width="1.5"
     id="path6044" />
  <path
     d="m45.409 380.55c-1.6795 4.054-5.7938 5.3795-8.1291 8.8668 3.1591 0.53231 9.5144 1.8987 11.971 4.206"
     fill="none"
     stroke="#000"
     stroke-linecap="round"
     stroke-linejoin="round"
     stroke-miterlimit="10"
     stroke-width="1.5"
     id="path6046" />
  <path
     d="m41.93 14.448c41.718-12.575 78.566 1.7039 106.8 33.871m-104.91-40.926c-1.5811 4.0921-5.6632 5.5173-7.9119 9.0611 3.1698 0.45407 9.5569 1.6664 12.07 3.9148"
     fill="none"
     stroke="#000"
     stroke-linecap="round"
     stroke-linejoin="round"
     stroke-miterlimit="10"
     stroke-width="1.5"
     id="path6048" />
  <path
     d="m18.671 304.93c0.33351-25.72 20.294-53.947 48.544-44.051m-54.341 38.99c3.1117 3.0929 2.7751 7.403 5.1132 10.888 1.6923-2.7197 5.37-8.0801 8.4391-9.4757"
     fill="none"
     stroke="#000"
     stroke-linecap="round"
     stroke-linejoin="round"
     stroke-miterlimit="10"
     stroke-width="1.5"
     id="path6050" />
</svg>
